<svg xmlns="http://www.w3.org/2000/svg" data-name="Layer 1" viewBox="0 0 168 168"><path fill="#2d4356" d="M147.20508,132.14188l-29.68652-22.41943a1.99442,1.99442,0,0,0-.2373-.1543l-9.082-49.72412a4.02476,4.02476,0,0,0-3.502-3.2583l-3.8291-.417-2.67383-17.147A3.98,3.98,0,0,0,94.24219,35.638H92.87207l-1.0874-10.31934a3.9917,3.9917,0,0,0-3.97754-3.58057H80.19287a3.99174,3.99174,0,0,0-3.97754,3.58105L75.12793,35.638H73.75781a3.98,3.98,0,0,0-3.95215,3.38379l-2.67383,17.147-3.83008.417a4.02369,4.02369,0,0,0-3.50049,3.25781l-9.0835,49.7251a2.084,2.084,0,0,0-.23633.15381L20.79492,132.14188a2,2,0,1,0,2.41016,3.19238l29.59277-22.34863a3.9854,3.9854,0,0,0,1.85547-2.69873l9.082-49.72461,5.353-.583a2.00017,2.00017,0,0,0,1.75977-1.68018L73.75781,39.638h3.17041A1.99944,1.99944,0,0,0,78.917,37.84744l1.27588-12.10938h7.61426L89.083,37.84744A1.99944,1.99944,0,0,0,91.07178,39.638h3.17041L97.15186,58.2991a2.00017,2.00017,0,0,0,1.75977,1.68018l5.35254.583,9.08252,49.7251a3.98554,3.98554,0,0,0,1.85547,2.69824l29.59277,22.34863a2,2,0,1,0,2.41016-3.19238Z"/><path fill="#0bceb2" d="M84 135.57156a2.0001 2.0001 0 0 0-2 2v10.1665a2 2 0 0 0 4 0v-10.1665A2.0001 2.0001 0 0 0 84 135.57156zM74 83.73709a10 10 0 1 0 10-9.999A10.01166 10.01166 0 0 0 74 83.73709zm10-5.999a6 6 0 1 1-6 5.999A6.006 6.006 0 0 1 84 77.73807zM84 65.73807a2.0001 2.0001 0 0 0 2-2V55.99631a1.97845 1.97845 0 0 0 2.12012-2.853l-2.3335-4.64062a1.99964 1.99964 0 0 0-3.57324 0l-2.3335 4.64063A1.99249 1.99249 0 0 0 82 56.00772v7.73035A2.0001 2.0001 0 0 0 84 65.73807zM51.58057 126.7825l-5.75977 1.23584a1.9932 1.9932 0 0 0-.1944 3.84924l-8.89789 7.32654a2.00028 2.00028 0 0 0-.27248 2.81541 2.02492 2.02492 0 0 0 2.81545.27248l8.96429-7.38123a1.9933 1.9933 0 0 0 1.32575 1.43152 2.019 2.019 0 0 0 2.51562-1.293l1.82715-5.68994a1.99987 1.99987 0 0 0-2.32373-2.56689zM122.3728 131.867a1.9926 1.9926 0 0 0-.1936-3.84863l-5.75977-1.23584a1.99987 1.99987 0 0 0-2.32373 2.56689l1.82715 5.68994a2.02562 2.02562 0 0 0 2.51563 1.293 1.9933 1.9933 0 0 0 1.32574-1.43152l8.96429 7.38123a2.02266 2.02266 0 0 0 2.81543-.27246 2.00028 2.00028 0 0 0-.27246-2.81543z"/><circle cx="2" cy="148.738" r="2" fill="#2d4356"/><path fill="#2d4356" d="M11 146.73807H8a2 2 0 0 0 0 4h3a2 2 0 0 0 0-4zM160 146.73807h-3a2 2 0 0 0 0 4h3a2 2 0 0 0 0-4z"/><circle cx="166" cy="148.738" r="2" fill="#2d4356"/><path fill="#0bceb2" d="M118.15387 154.73807h-8.30774a2.00641 2.00641 0 0 0 0 4h8.30774a2.00641 2.00641 0 0 0 0-4zM58.15387 154.73807H49.84613a2.00641 2.00641 0 0 0 0 4h8.30774a2.00641 2.00641 0 0 0 0-4zM104 154.73807H64a2 2 0 0 0 0 4H79.94v2H72a2 2 0 0 0 0 4H97a2 2 0 1 0 0-4H88.06v-2H104a2 2 0 1 0 0-4z"/><path fill="#2d4356" d="M150.72131 146.73807H94v-13h3.38721A4.47149 4.47149 0 0 0 102 129.43387V104.34793c0-3.64453-3.24072-6.60986-7.22412-6.60986H73.22412c-3.9834 0-7.22412 2.96533-7.22412 6.60986v25.08594a4.47149 4.47149 0 0 0 4.61279 4.3042H74v13H17.27869a2.017 2.017 0 1 0 0 4H150.72131a2.017 2.017 0 1 0 0-4zM76 117.73807a2.0001 2.0001 0 0 0-2 2v10H70.61279c-.39551 0-.61279-.22852-.61279-.3042V104.34793c0-1.439 1.44629-2.60986 3.22412-2.60986H94.77588c1.77783 0 3.22412 1.1709 3.22412 2.60986v25.08594c0 .07568-.21729.3042-.61279.3042H94v-10a2 2 0 0 0-4 0v27H78v-27A2.0001 2.0001 0 0 0 76 117.73807zM45 71.73807a3 3 0 1 0-3-3A3.00344 3.00344 0 0 0 45 71.73807zm0-4.5a1.5 1.5 0 1 1-1.5 1.5A1.50148 1.50148 0 0 1 45 67.23807zM158.30471 67.73807a2 2 0 1 0 2 2A2.00229 2.00229 0 0 0 158.30471 67.73807zm0 3a1 1 0 1 1 1-1A1.001 1.001 0 0 1 158.30471 70.73807zM120 63.73807a2 2 0 1 0 2 2A2.00229 2.00229 0 0 0 120 63.73807zm0 3a1 1 0 1 1 1-1A1.001 1.001 0 0 1 120 66.73807zM104 15.85268a2 2 0 1 0 2 2A2.00229 2.00229 0 0 0 104 15.85268zm0 3a1 1 0 1 1 1-1A1.001 1.001 0 0 1 104 18.85268zM17 20.85268a2 2 0 1 0-2 2A2.00229 2.00229 0 0 0 17 20.85268zm-3 0a1 1 0 1 1 1 1A1.001 1.001 0 0 1 14 20.85268z"/><polygon fill="#0bceb2" points="67.638 5.749 69.125 3.794 68.186 3.262 67.232 5.452 67.2 5.452 66.23 3.277 65.275 3.825 66.746 5.734 66.746 5.765 64.446 5.468 64.446 6.532 66.762 6.235 66.762 6.266 65.275 8.174 66.167 8.738 67.185 6.532 67.215 6.532 68.154 8.722 69.14 8.159 67.638 6.281 67.638 6.25 70 6.532 70 5.468 67.638 5.781 67.638 5.749"/><polygon fill="#0bceb2" points="5.734 64.891 4.878 65.99 5.392 66.315 5.978 65.044 5.996 65.044 6.536 66.306 7.104 65.981 6.239 64.9 6.239 64.882 7.599 65.044 7.599 64.432 6.239 64.612 6.239 64.594 7.095 63.468 6.555 63.161 6.005 64.422 5.987 64.422 5.429 63.17 4.878 63.486 5.726 64.585 5.726 64.603 4.401 64.432 4.401 65.044 5.734 64.873 5.734 64.891"/><polygon fill="#0bceb2" points="159.029 9.259 159.029 8.216 156.712 8.523 156.712 8.492 158.17 6.574 157.249 6.052 156.313 8.2 156.282 8.2 155.331 6.067 154.394 6.605 155.837 8.477 155.837 8.508 153.581 8.216 153.581 9.259 155.852 8.968 155.852 8.999 154.394 10.871 155.269 11.424 156.267 9.259 156.297 9.259 157.218 11.408 158.185 10.856 156.712 9.014 156.712 8.983 159.029 9.259"/><polygon fill="#0bceb2" points="136.037 37.193 137.295 35.538 136.501 35.088 135.694 36.941 135.667 36.941 134.846 35.101 134.038 35.564 135.283 37.18 135.283 37.206 133.336 36.954 133.336 37.855 135.296 37.603 135.296 37.63 134.038 39.244 134.792 39.721 135.654 37.855 135.68 37.855 136.474 39.708 137.308 39.231 136.037 37.643 136.037 37.616 138.036 37.855 138.036 36.954 136.037 37.219 136.037 37.193"/></svg>